<?xml version="1.0" encoding="utf-8"?>
<!-- Generator: Adobe Illustrator 22.1.0, SVG Export Plug-In . SVG Version: 6.00 Build 0)  -->
<svg version="1.1" xmlns="http://www.w3.org/2000/svg" xmlns:xlink="http://www.w3.org/1999/xlink" x="0px" y="0px"
	 viewBox="0 0 500 500" style="enable-background:new 0 0 500 500;" xml:space="preserve">
<style type="text/css">
	.st0{display:none;}
	.st1{display:inline;fill:#F49636;}
	.st2{display:inline;}
	.st3{fill:#1D1D1B;}
	.st4{fill:none;stroke:#1D1D1B;stroke-miterlimit:10;}
	.st5{fill:#13110C;}
	.st6{fill:#FFFFFF;stroke:#13110C;stroke-miterlimit:10;}
	.st7{fill:none;stroke:#13110C;stroke-miterlimit:10;}
	.st8{fill:#FFFFFF;stroke:#13110C;stroke-width:3;stroke-miterlimit:10;}
	.st9{fill:none;stroke:#13110C;stroke-width:2;stroke-miterlimit:10;}
	.st10{fill:#13110C;stroke:#FFFFFF;stroke-width:0.25;stroke-miterlimit:10;}
	.st11{fill:#FFFFFF;stroke:#13110C;stroke-width:0.25;stroke-miterlimit:10;}
	.st12{fill:none;stroke:#FFFFFF;stroke-width:0.25;stroke-miterlimit:10;}
	.st13{fill:none;stroke:#13110C;stroke-width:0.75;stroke-miterlimit:10;}
	.st14{fill:none;stroke:#000000;stroke-miterlimit:10;}
	.st15{fill:none;stroke:#4C4C51;stroke-miterlimit:10;}
	.st16{fill:#919191;stroke:#4C4C51;stroke-miterlimit:10;}
	.st17{fill:#13110C;stroke:#4C4C51;stroke-miterlimit:10;}
</style>
<g id="Calque_2" class="st0">
	<rect class="st1" width="500" height="500"/>
</g>
<g id="Calque_1">
	<g id="Calque_3" class="st0">
		<g class="st2">
			<rect x="200" y="225.1" class="st3" width="111" height="54.8"/>
			<circle class="st3" cx="255.8" cy="54.6" r="9.6"/>
			<line class="st4" x1="262.5" y1="65.9" x2="276.2" y2="91.5"/>
			<line class="st4" x1="245.9" y1="65.9" x2="232.2" y2="91.5"/>
			<rect x="244.2" y="202.1" class="st3" width="23" height="17.8"/>
			<g>
				<path d="M169,91.5v107.9h170V91.5H169z M213.4,145.5c-5.3,0-9.6-4.3-9.6-9.6s4.3-9.6,9.6-9.6s9.6,4.3,9.6,9.6
					S218.7,145.5,213.4,145.5z M286.3,177.7h-62.8v-11h62.8V177.7z M290.2,145.5c-5.3,0-9.6-4.3-9.6-9.6s4.3-9.6,9.6-9.6
					c5.3,0,9.6,4.3,9.6,9.6C299.8,141.2,295.5,145.5,290.2,145.5z"/>
			</g>
			<path class="st3" d="M317.1,230.5c0,0,36.3-9.1,35,86h-17.5c0,0,4.4-59.7-17.5-70.7"/>
			<path class="st3" d="M334.2,322.3c0,0-17.6,6.9-12.3,35h16.6c0,0-8.6-20.6,12.7-17.5c0,0,16.6-1.7,11.9,17.5h17.1
				c0,0,8.9-35-29.1-35h-12.6"/>
			<path class="st3" d="M193.7,230.5c0,0-36.3-9.1-35,86h17.5c0,0-4.4-59.7,17.5-70.7"/>
			<path class="st3" d="M176.6,322.3c0,0,17.6,6.9,12.3,35h-16.6c0,0,8.6-20.6-12.7-17.5c0,0-16.6-1.7-11.9,17.5h-17.1
				c0,0-8.9-35,29.1-35h12.6"/>
			<polygon class="st3" points="223,312.8 290.2,312.8 256.4,341.6 			"/>
			<rect x="224.7" y="286.1" class="st3" width="64.2" height="20.4"/>
			<polyline class="st3" points="290.2,321.6 290.2,420.6 273.3,420.6 273.3,334.4 			"/>
			<polyline class="st3" points="225.9,322.6 225.9,420.6 242.9,420.6 242.9,335.3 			"/>
			<rect x="190.9" y="425.9" class="st3" width="54.3" height="28.1"/>
			<rect x="270.9" y="425.9" class="st3" width="54.3" height="28.1"/>
		</g>
	</g>
	<g id="Calque_1_1_" class="st0">
		<g class="st2">
			<path d="M273.3,406c9.6-10.2,4.8-21,4.8-21c-8.6-18-26.5-10.8-26.5-10.8c-17.3,11-9.4,25.9-9.4,25.9
				c8.8,16.4,24.3,10.2,24.3,10.2c7.2,4.5,12.1,1.1,12.1,1.1C271.1,411.5,273.3,406,273.3,406z M258.8,384.3
				c0.3-0.2,0.5-0.4,0.9-0.4s0.7,0.1,0.9,0.4s0.4,0.5,0.4,0.9c0,0.3-0.1,0.6-0.4,0.9s-0.5,0.4-0.9,0.4c-0.3,0-0.6-0.1-0.9-0.4
				c-0.3-0.2-0.4-0.5-0.4-0.9S258.6,384.6,258.8,384.3z M262.6,399.7l-0.1,0.1c-0.9-0.1-1.8-0.1-2.7-0.1c-0.9,0-1.8,0-2.7,0.1
				l-0.1-0.1v-0.5l0.1-0.1c0.7,0,1.1-0.1,1.2-0.1s0.2-0.1,0.2-0.1c0.1-0.1,0.1-0.2,0.1-0.3c0-0.1,0.1-0.6,0.1-1.5
				c0-0.8,0.1-1.4,0.1-1.9V393c0-0.3,0-0.7,0-1.2s-0.1-0.8-0.1-1c0-0.1-0.1-0.2-0.2-0.3c-0.1-0.1-0.3-0.1-0.6-0.1H257l-0.1-0.1v-0.5
				l0.1-0.1c1.4-0.2,2.6-0.5,3.6-0.8l0.2,0.1c-0.1,1-0.1,2.2-0.1,3.7v2.5c0,0.2,0,0.7,0,1.6s0.1,1.4,0.1,1.6s0.1,0.3,0.2,0.3
				c0.1,0.1,0.1,0.1,0.2,0.1s0.5,0.1,1.2,0.1l0.1,0.1L262.6,399.7L262.6,399.7z"/>
		</g>
		<g class="st2">
			<path class="st5" d="M536,365.8c0,0-0.5-0.8-3.9-1.1l-63.4-3.5c0,0-1.8-0.5-1.9,0.9c0,0-2.4-0.6-3,0.8c0,0-5.7,9.3-5.2,18.2
				c0,0-0.6,2.4,2.2,2.8l2.6,0.3l0.1,1.4h0.6h0.4l-0.1,1.5l1.6,0.3c0,0,3.6-11.1,5.2-11.7c0,0,1.6-0.7,2.6-0.7l36.4,2.8l-0.2,0.8
				l2.9,0.5c0,0-1.9,1.9-1.8,3.1c0,0-1.8,6.7-2.2,7.8l4,0.3l1.2,0.2l0.1,2h4.4l1.2-0.7l-0.1-2.2l9.7,0.4c0,0,1.9,0.2,2.8-2.6
				c0.9-2.8,4.2-4.1,4.2-4.1v-14.1C536.5,369.3,536.7,366.3,536,365.8z"/>
			<polygon class="st6" points="472.3,372.7 472.3,374.7 520,378.2 520.4,376.2 			"/>
			<polygon class="st6" points="472.3,370.2 472.3,372.2 520,375.7 520.4,373.7 			"/>
			<path class="st5" d="M524,361.5c0,0-1.2-0.4-1.2,2.3h2.3C525,363.8,525.6,361.2,524,361.5z"/>
			<path class="st7" d="M472.9,375.2c0,0-2.9-1.9-6.9,12.3c0,0-6.8,6.4-13.3,8.2l45.6,5.8c0,0,8.1-4.7,8.1-5.9c0,0,2.6-3.5,2.9-6.6
				s2.2-10.7,4.2-11.2L472.9,375.2z"/>
			<path class="st8" d="M511.4,369.5l6.1,0.3l-0.9,7c0,0-0.6,0.4-0.6,2.1l-2.6,0.9l-3.9-0.7C509.5,379.2,509,371.4,511.4,369.5z"/>
		</g>
		<g class="st2">
			<path class="st9" d="M580.9,386.1c0,0,18.7,3,19.3,4.9c0,0,1.3,1.3,1.1,2.9v42l29.7,3.6l18.2-4.3v-52.6l-27.4-8l-39.5,4.1
				L580.9,386.1z"/>
			<polygon class="st5" points="607.1,424.5 587.5,425.9 631.7,428.1 640.4,425.5 			"/>
			<path class="st7" d="M582.3,409.9"/>
			<g>
				<polygon class="st7" points="607.1,418.5 611.2,426.3 618.9,426.3 627.5,425.2 629,418.5 622.6,405.7 610.3,406.3 605.9,413.9 
									"/>
				<g>
					<polyline class="st7" points="607.1,418.5 612.5,412.7 614.3,406.1 					"/>
					<polyline class="st7" points="612.5,412.7 619.8,418.5 618.9,426.3 					"/>
					<line class="st7" x1="619.8" y1="418.5" x2="626.5" y2="413.6"/>
				</g>
			</g>
			<g>
				<path class="st5" d="M650.9,438.8l-0.6-54.3c0.1-5.7-2.4-5.3-2.4-5.3l-11.2-8.1c-4.5-3.6-5.1-1.9-5.1-1.9l-49.7,6.4
					c-8.1,0.1-5.9,5.3-5.9,5.3l-0.3,61.2l2,0.1l-0.1,6.4l54.8,5l17.2-8.5l-0.1-6.2h1.4V438.8z M618.9,435.1l-32-0.6
					c-5.2,0-4-4.1-4-4.1v-42.7c-0.4-4.2,3.3-3.4,3.3-3.4l31.9-3.5c4.6-0.6,4.1,2.9,4.1,2.9v47.8C622.3,436,618.9,435.1,618.9,435.1z
					 M634.4,438l-0.4-52.7c0,0-1.1-5,2.4-3.6l9.9,5.3c0,0,1.7-0.1,1.5,3.5v43.1L634.4,438z"/>
			</g>
			<polygon class="st5" points="596.9,427.2 596.9,430.2 599.5,430.2 599.5,432.5 602,435.2 625,435.2 632.8,428.6 			"/>
			<polygon class="st5" points="610.8,384.8 610.8,389.8 617.3,389.2 617.3,383.4 610.8,384.1 			"/>
			<polygon class="st5" points="611.4,391.3 611.4,393.4 614,392.9 617.3,393.9 617.3,391.3 614,390.4 			"/>
			<polygon class="st5" points="612.8,393.3 614.2,395.8 615.7,393.3 			"/>
			<rect x="612.4" y="388.3" class="st5" width="3.1" height="3.1"/>
			<polygon class="st5" points="608.6,381.1 612.5,383.8 614.8,383.8 610.8,380.9 			"/>
		</g>
		<g class="st2">
			<g>
				<path class="st5" d="M474.3,485.9L410.8,408c0,0-7.7-3.4-9.5-2.9s-5.9,4.3-8.3,7l51.6,85.3l1.4-1.1l5.4,6.3
					c0,0,11.9-2.9,13.5-6.3c0,0,7.2-1.8,9.5-3.8C474.3,492.5,479.7,490.7,474.3,485.9z M454,487.7l-54-76.3l-1.5-2.9v-1.6l58,79.3
					L454,487.7z M466,482.2l-60.3-75.3l62,75.3H466z"/>
			</g>
			<path class="st10" d="M402.3,412.1l-7.5,7.9l9.2,14.9l2.3,2.1l8-8.5L402.3,412.1z M398.4,423.8l4.8-5l2.4,2.7l-5.6,5.1
				L398.4,423.8z M403.7,429.8l-1.6-3.1c1.9-1.9,2.5-2.1,2.5-2.1l2.4,1C408.4,429.6,403.7,429.8,403.7,429.8z"/>
			<polygon class="st11" points="403.3,418.8 398.4,423.8 400.1,426.6 405.7,421.5 			"/>
			<path class="st11" d="M407,425.6l-2.4-1c0,0-0.6,0.1-2.5,2.1l1.6,3.1C403.7,429.8,408.4,429.6,407,425.6z"/>
			<path class="st12" d="M440.1,490c0,0,10.8-9.5,11.2-11c0,0,5.7-2.4,6.9-6.7"/>
			<path class="st12" d="M438.2,487c0,0,10.5-9.3,10.9-10.8c0,0,5.9-1.8,7-6"/>
			<path class="st12" d="M440.9,486.9c0,0,8.9-8,9.3-9.5c0,0,5.8-1.3,7-5.5"/>
			<path class="st12" d="M436.8,484.6c0,0,10.2-9.3,10.6-10.8c0,0,5.9-1.9,7-6.1"/>
			<path class="st12" d="M440.9,486.9c0,0,8.9-8,9.3-9.5c0,0,6-1.6,7.1-5.9"/>
			<path class="st12" d="M437.5,485.8c0,0,10.6-9.4,11-10.8c0,0,5.6-1.7,6.7-6"/>
			<path class="st12" d="M439.2,488.6c-0.2-0.2,10.5-9.7,10.9-11.2c0,0,6-1.9,7.2-6.1"/>
			<path class="st12" d="M436.1,482.9c0,0,9.8-8.9,10.2-10.4c0,0,5.9-1.5,7.1-5.7"/>
			<path class="st12" d="M434,479.9c0,0,9.8-8.9,10.1-10.3c0,0,6.2-1.3,7.4-5.5"/>
			<path class="st12" d="M432.2,477c0,0,9.8-8.3,10.1-9.8c0,0,6-1,7.1-5.2"/>
			<path class="st12" d="M433.3,478.4c0,0,9.8-8.5,10.2-10c0,0,5.7-1.1,6.8-5.3"/>
			<path class="st12" d="M435,481.2c0,0,9.7-8.8,10.1-10.3c0,0,6-1.3,7.2-5.5"/>
			<path class="st12" d="M431.5,475.8c0,0,9.5-8.6,9.9-10.1c0,0,5.7-0.8,6.9-5.1"/>
			<path class="st12" d="M429.7,472.6c0,0,9.3-8.3,9.6-9.8c0,0,5.9-0.6,7.1-4.8"/>
			<path class="st12" d="M428.2,469.9c0,0,8.9-8,9.3-9.5c0,0,5.9-0.6,7.1-4.8"/>
			<path class="st12" d="M429.1,471.3c0,0,9.2-8.2,9.5-9.7c0,0,5.8-0.6,7-4.8"/>
			<path class="st12" d="M430.5,474.1c0,0,9.4-8.5,9.8-10c0,0,5.8-0.6,6.9-4.8"/>
			<path class="st12" d="M427.1,468.4c0,0,9.5-8.2,9.8-9.5c0,0,5.7-0.4,6.8-4.1"/>
			<path class="st12" d="M425.3,465.6c0,0,9.3-8,9.6-9.3c0,0,5.8-0.1,6.9-3.8"/>
			<path class="st12" d="M427.3,465.8c0,0,8.3-7,8.6-8.3c0,0,5.8-0.3,6.9-4"/>
			<path class="st12" d="M423.9,463.3c0,0,9-7.7,9.4-9.1c0,0,5.5-0.5,6.6-4.2"/>
			<path class="st12" d="M427.3,465.8c0,0,8.3-7,8.6-8.3c0,0,5.7,0,6.8-3.7"/>
			<path class="st12" d="M424.7,464.6c0,0,9.3-8,9.7-9.4c0,0,5.4-0.5,6.5-4.2"/>
			<path class="st12" d="M426.1,466.9c0,0,9.4-8.1,9.8-9.4c0,0,5.8-0.3,6.9-4"/>
			<path class="st12" d="M423.1,462c0,0,8.9-7.6,9.2-8.9c0,0,5.5-0.5,6.6-4.2"/>
			<path class="st12" d="M421.4,459.1c0,0,8.5-7.3,8.9-8.6c0,0,5.7-0.5,6.7-4.2"/>
			<path class="st12" d="M420,456.8c0,0,8.3-7,8.6-8.3c0,0,5.3-0.5,6.4-4.2"/>
			<path class="st12" d="M421.1,457.8c-0.9,0.7,8.2-6.9,8.6-8.3c0,0,5.3-0.5,6.4-4.2"/>
			<path class="st12" d="M422.3,460.3c0,0,8.6-7.3,8.9-8.6c0,0,5.7-0.4,6.8-4.1"/>
			<path class="st12" d="M419.1,455.5c0,0,8.3-7,8.6-8.3c0,0,5.2,0,6.3-3.7"/>
			<path class="st12" d="M417.6,452.8c0,0,7.8-7.3,8.1-8.6c0,0,5.7,0.2,6.7-3.5"/>
			<path class="st12" d="M416.3,450.4c0,0,7.5-7,7.8-8.3c0,0,5.2-0.1,6.2-3.8"/>
			<path class="st12" d="M417,451.8c0,0,7.8-7.4,8.1-8.7c0,0,5.2,0.1,6.2-3.6"/>
			<path class="st12" d="M418.6,454.2c0,0,7.8-7.4,8.1-8.7c0,0,5.6,0.1,6.6-3.6"/>
			<path class="st12" d="M415.2,449.7c0,0,7.8-7.6,8.1-9.1c0,0,5,0.8,6-3.3"/>
			<path class="st12" d="M413.6,446.7c0,0,7.6-7.4,7.9-8.9c0,0,4.7,0.5,5.7-3.5"/>
			<path class="st12" d="M414.3,448.2c0,0,7.8-7.6,8.1-9.1c0,0,5.2,0.8,6.3-3.3"/>
			<path class="st12" d="M412.2,444.2c0,0,7.4-7.2,7.7-8.7c0,0,4.4,0.2,5.4-3.8"/>
			<path class="st12" d="M414.3,448.2c0,0,7.8-7.6,8.1-9.1c0,0,5.2,0.8,6.3-3.3"/>
			<path class="st12" d="M413.1,445.4c0,0,7.5-7.3,7.8-8.7c0,0,4.4,0.3,5.5-3.8"/>
			<path class="st12" d="M414.3,448.2c0,0,7.8-7.6,8.1-9.1c0,0,5.2,0.8,6.3-3.3"/>
			<path class="st12" d="M411.5,442.7c0,0,7.1-7,7.4-8.4c0,0,4.5,0,5.5-4.1"/>
			<path class="st12" d="M409.7,439.8c0,0,7-6.8,7.3-8.3c0,0,4-0.2,5-4.2"/>
			<path class="st12" d="M409.1,438.7c0,0,7.1-6.9,7.4-8.4c0,0,3.5-0.5,4.5-4.6"/>
			<path class="st12" d="M410.5,441.1c0,0,7.1-6.9,7.4-8.3c0,0,4.1-0.1,5.1-4.2"/>
			<path class="st12" d="M395.8,417.1c0,0,5.5-4.9,5.8-5.8c0,0,2.5-0.3,3.2-2.9"/>
			<path class="st12" d="M395.2,416.2c0,0,5.5-4.9,5.8-5.8c0,0,2.5-0.3,3.2-2.9"/>
			<path class="st12" d="M393.9,414.4c0,0,5.5-4.9,5.8-5.8c0,0,2.5-0.3,3.2-2.9"/>
			<path class="st12" d="M394.5,415.2c0,0,5.5-4.9,5.8-5.8c0,0,2.5-0.3,3.2-2.9"/>
		</g>
		<g class="st2">
			<path class="st13" d="M452.9,629.4l-4.2-1.2v-50.6c0,0-0.9-3.3,2.1-4l6.1-0.7l38.7,3.7l-1.2,49.9L452.9,629.4z"/>
			<polygon class="st5" points="454.3,613.4 458.7,628.5 522.1,640.7 522.1,617.7 454.3,612.3 			"/>
			<polygon class="st5" points="467.4,578.9 467.4,583.1 523.1,578.9 523.1,573.2 			"/>
			<polygon class="st5" points="460.6,591 460.6,596.1 523.1,596.1 523.1,586.7 			"/>
			<polygon class="st7" points="470.3,555.2 463.3,570.6 518.8,561.1 526.2,540 			"/>
			<path class="st4" d="M523.7,643.9l18.7,3.3l27.9-17.6v-60.3l-24.9-8.7l-20.6,1.4c0,0-2.6,0.9-1.9,7.3v3.9L523.7,643.9z"/>
			<g>
				<path class="st5" d="M501.5,607c0,0,0-0.3-0.6-0.3c0,0-0.6,0.2-0.6,0.8c0,0-0.1,0.9,0.6,1c0,0,0.7,0.1,0.8-0.6
					C501.7,608,501.9,607.3,501.5,607z"/>
				<path class="st5" d="M454.5,598.9v12l67.7,5.6v-17.1L454.5,598.9z M492.3,610.3c-1,1.4-2.3,0.8-2.3,0.8l-0.3-0.2
					c-1.1-0.7-1-3.8-1-3.8c0-1.8,2-2.2,2-2.2C493.8,605.4,492.3,610.3,492.3,610.3z M497.2,606.6h-0.8v1.5c-0.1,0.7,0.3,0.5,0.3,0.5
					v0.8c-1.3,0.2-1.1-0.8-1.1-0.8v-1.9v-0.2l-0.3-0.1v-0.9h0.7l0.1-1.1h0.7v1.1h0.5v1.1H497.2z M499.2,606.8
					c-0.7-0.1-0.6,0.2-0.6,0.2l-0.1,2.5h-0.9l0.2-3.7h0.6c0.3-0.2,0.8,0,0.8,0V606.8z M502.6,608.5c-0.3,1.5-1.8,1.2-1.8,1.2
					c-1.4-0.2-1.2-2.2-1.2-2.2c0-1.4,1.2-1.8,1.2-1.8c1.2,0,1.3,0.5,1.3,0.5C502.9,606.8,502.6,608.5,502.6,608.5z M504.9,606.9
					h-0.8v1.5c-0.1,0.7,0.3,0.5,0.3,0.5v0.8c-1.3,0.2-1.1-0.8-1.1-0.8V607v-0.2l-0.3-0.1v-0.9h0.7l0.1-1.1h0.7v1.1h0.5v1.1H504.9z
					 M508.1,608.3h-1.6h-0.2v-0.7h1c0-0.5-0.5-0.4-0.5-0.4s-1.2-0.2-1.1,0.7c0,0.9,0.9,1,0.9,1l1.2-0.2c0,0,0.2,0.2,0.2,0.6
					c0,0.6-1.6,0.6-1.6,0.6c-1.4-0.2-1.4-1.7-1.4-1.7c-0.2-1.4,0.5-1.8,0.5-1.8c0.6-0.7,1.9-0.2,1.9-0.2
					C508.3,606.5,508.1,608.3,508.1,608.3z M509.9,610.1c0,0-1.4-0.4-1.4-2.1c0,0,0-1.7,1.2-1.8c0,0,1.4-0.5,1.7,0.8l-0.7,0.8
					c0,0-0.4-0.7-0.9-0.1c0,0-0.3,0.7,0,1.1c0,0,0.3,0.5,1.1,0.2l0.7,1C511.6,609.9,510.6,610.6,509.9,610.1z"/>
			</g>
			<line class="st7" x1="526" y1="540" x2="545.3" y2="560.5"/>
			<line class="st7" x1="485.6" y1="566.8" x2="495.6" y2="576.6"/>
		</g>
		<g class="st2">
			<path class="st4" d="M293.3,459.8c0,0,8.7,14.8,34.1,2.7c0,0,9.8-3,12.7-17.3c0,0,11.9,38.9,8.6,49.2c0,0-8.2,14.4-11.9,15.3
				s-16.8,0.8-24.4-6.1C312.4,503.7,302.6,484.9,293.3,459.8z"/>
			<g>
				<path d="M295.2,467.7c-28,3-31.3-13.9-31.3-13.9c0.5,26.7,3.5,47.8,3.5,47.8c4.9,9.1,17.2,13.5,21,13.9s16.3-10.5,16.3-10.5
					c6.5-8.6,8.2-49.3,8.2-49.3C305.5,468.1,295.2,467.7,295.2,467.7z M274.1,483.8l5.5-3.6l4.1,4
					C283.6,484.2,279.4,482.2,274.1,483.8z M287.8,505.1c-7.8-0.5-10-6.1-10-6.1c2.3,3.1,10.6,3.3,10.6,3.3c7.2-0.5,8.9-1.7,9.3-2.3
					c0-0.1,0.1-0.2,0.1-0.3c0,0,0,0.1-0.1,0.3C296.1,505.1,287.8,505.1,287.8,505.1z M292.7,484.3l5.5-3.6l4.1,4
					C302.2,484.7,298,482.7,292.7,484.3z"/>
				<path d="M320.6,500.3c0,0.1-0.1,0.2-0.1,0.3C320.6,500.4,320.6,500.3,320.6,500.3z"/>
			</g>
			<path d="M321.7,499.8c0,0,0.7-6,8.2-8.4c0,0,8.3-2.2,11,2.8c0,0-0.2-1.9-9.7-0.2C331.2,493.9,323.1,496.2,321.7,499.8z"/>
			<path d="M311.4,481.6l6.4,1.5l2.5-5.1C320.3,478,317,481.3,311.4,481.6z"/>
			<path d="M328.8,474.9l6.4,1.5l2.5-5.1C337.7,471.3,334.3,474.6,328.8,474.9z"/>
		</g>
		<g class="st2">
			<path class="st14" d="M336.7,601.1l23.8-0.1v4h-3.2l0.3,24.7l22.1,33c0,0,4,5,0.5,6h-60.7c0,0-2.8-1.8-0.8-4.7
				c1.7-2.4,22-34.7,22-34.7v-24.5l-3.9-0.2L336.7,601.1z"/>
			<polyline points="322.3,664.3 336.5,642.3 362.5,642.3 377.7,665.2 322.3,665.2 			"/>
		</g>
		<g class="st2">
			<path d="M376.3,376.5c81.3-86.4,40.5-177.2,40.5-177.2c-72.5-152.3-224-91.2-224-91.2C47,201,113.2,326.5,113.2,326.5
				c74.4,138.2,204.9,85.9,204.9,85.9c61.1,38.3,102.2,9.6,102.2,9.6C358.3,423.4,376.3,376.5,376.3,376.5z M267.2,340.8
				c-2.6,2.6-5.7,3.9-9.4,3.9c-3.6,0-6.8-1.3-9.4-3.9c-2.6-2.6-3.9-5.7-3.9-9.3c0-3.8,1.3-6.9,4-9.5s5.8-3.8,9.3-3.8
				c3.7,0,6.8,1.3,9.4,3.9s3.9,5.7,3.9,9.4C271.1,335.1,269.8,338.2,267.2,340.8z M300.1,232.8c-1.5,4.1-3.7,8-6.7,11.9
				c-2.9,3.9-8.5,9.5-16.8,16.9c-5.3,4.7-9.3,8.5-12,11.4c-2.8,3-4.9,5.8-6.3,8.6c-1.4,2.8-2.1,5.3-2.1,7.6c0,3.8,1.5,7.4,4.4,10.7
				l-0.2,1.6l-2.9,2.2h-1.8c-6.1-4.7-9.1-10.2-9.1-16.7c0-4.4,1.1-8.5,3.2-12.4c2.1-3.9,7-10,14.4-18.4c5.9-6.6,10.3-12.3,13.1-17.1
				c2.8-4.8,4.2-9.6,4.2-14.3c0-7.3-2.7-13.4-8.1-18.3c-5.4-4.8-12-7.3-19.8-7.3c-4.4,0-9.1,1-14.2,3c-2.1,2-3.9,4.8-5.6,8.3
				l-4.2,8.4l-1.3,0.9l-4.9-0.6l-0.7-1.6l8.5-25.8c8.7-5.6,18.1-8.4,28.3-8.4c7.8,0,15,1.4,21.6,4.3c6.6,2.8,11.7,7.1,15.4,12.7
				c3.7,5.6,5.6,12,5.6,19C302.3,224.3,301.6,228.7,300.1,232.8z"/>
		</g>
		<g class="st2">
			<path d="M335,156h-46.7h-86.6v0.9h-50.4V156H126v177.7h259.3V156H335z M259.4,316.3c-33.4,0-60.4-27.1-60.4-60.4
				s27.1-60.4,60.4-60.4c33.4,0,60.4,27.1,60.4,60.4S292.8,316.3,259.4,316.3z"/>
			<path d="M259.4,202.6c-29.4,0-53.2,23.8-53.2,53.2S230,309,259.4,309s53.2-23.8,53.2-53.2S288.8,202.6,259.4,202.6z M259.4,296.1
				c-19.8,0-35.9-16.1-35.9-35.9s16.1-35.9,35.9-35.9s35.9,16.1,35.9,35.9S279.3,296.1,259.4,296.1z"/>
			<g>
				<path d="M267.9,116v28.9h85.5V116H267.9z M344.6,140.3h-67.8v-18.2h67.8L344.6,140.3L344.6,140.3z"/>
			</g>
			<rect x="288.3" y="147.7" width="46.7" height="8.2"/>
			<rect x="86.9" y="179" width="29.6" height="131.7"/>
			<rect x="151.3" y="142.2" width="50.4" height="13.8"/>
			<rect x="151.3" y="156" width="50.4" height="0.9"/>
		</g>
		<g class="st2">
			<g>
				<circle cx="252.9" cy="214.9" r="47.1"/>
				<path d="M196.6,331.6c0,0-11.3-68,30.2-69.6c0,0,8.7,0.8,9.7,5.3c0,0,9,20.6,28.6,8c0,0,4.5-6,4.5-8c0,0,0.5-4.6,8-5.3
					c0,0,42.2,0,31,69.6H196.6z"/>
			</g>
			<g>
				<circle cx="342.3" cy="228.2" r="36.5"/>
				<path d="M298.7,318.5c0,0-8.8-52.7,23.4-53.9c0,0,6.7,0.6,7.5,4.1c0,0,7,15.9,22.2,6.2c0,0,3.5-4.7,3.5-6.2c0,0,0.4-3.6,6.2-4.1
					c0,0,32.6,0,24,53.9H298.7z"/>
			</g>
			<g>
				<circle cx="161.1" cy="228.2" r="36.5"/>
				<path d="M117.6,318.5c0,0-8.8-52.7,23.4-53.9c0,0,6.7,0.6,7.5,4.1c0,0,7,15.9,22.2,6.2c0,0,3.5-4.7,3.5-6.2c0,0,0.4-3.6,6.2-4.1
					c0,0,32.6,0,24,53.9H117.6z"/>
			</g>
		</g>
		<g class="st2">
			<g>
				<circle cx="229.1" cy="167.4" r="36.5"/>
				<path d="M185.5,257.8c0,0-8.8-52.7,23.4-53.9c0,0,6.7,0.6,7.5,4.1c0,0,7,15.9,22.2,6.2c0,0,3.5-4.7,3.5-6.2c0,0,0.4-3.6,6.2-4.1
					c0,0,32.7,0,24,53.9H185.5z"/>
			</g>
			<g>
				<line class="st14" x1="289.6" y1="258.7" x2="306.3" y2="258.7"/>
				<g>
					<path class="st14" d="M286.6,223.6c0,0-2.3,17.1,11.6,16.7c0,0,11.6,0.4,11.6-16.7"/>
					<line class="st14" x1="298" y1="242.2" x2="298" y2="258.1"/>
					<path d="M305.6,229.2h-15.2c0,0,1.7,7.3,5.6,7.3C295.9,236.5,303.5,239.4,305.6,229.2z"/>
				</g>
			</g>
			<g>
				<line class="st14" x1="319" y1="258.9" x2="335.7" y2="258.9"/>
				<g>
					<path class="st14" d="M316,223.7c0,0-2.3,17.1,11.6,16.7c0,0,11.6,0.4,11.6-16.7"/>
					<line class="st14" x1="327.4" y1="242.4" x2="327.4" y2="258.3"/>
					<path d="M335,229.4h-15.2c0,0,1.7,7.3,5.6,7.3C325.3,236.7,332.9,239.5,335,229.4z"/>
				</g>
			</g>
			<g>
				<line class="st14" x1="349.3" y1="259.1" x2="365.9" y2="259.1"/>
				<g>
					<path class="st14" d="M346.2,223.9c0,0-2.3,17.1,11.6,16.7c0,0,11.6,0.4,11.6-16.7"/>
					<line class="st14" x1="357.6" y1="242.6" x2="357.6" y2="258.5"/>
					<path d="M365.2,229.6H350c0,0,1.7,7.3,5.6,7.3C355.6,236.9,363.1,239.7,365.2,229.6z"/>
				</g>
			</g>
			<g>
				<path d="M146.7,308.9c0.2,0.7,0.3,1.4,0.5,2.2c12,53.4,36,102,36,102H335c22.8-40.5,31.3-73.8,39.2-105.1
					C344.4,311,248,318.8,146.7,308.9z"/>
				<path d="M376.4,302.2c5.5-24.2,7.2-41,7.2-41H140.5c0,13.7,1.7,28.1,4.4,42.4C188.8,307.9,288.8,314.9,376.4,302.2z"/>
			</g>
		</g>
	</g>
	<g id="Calque_2_1_">
		<g>
			<path class="st15" d="M284.6,97.2c0,0,12.1,1.5,9.8,16.6c0,0,32.5-3,36.3,0l19.7-8.3c0,0,5.9-37.3-15.9-40.8
				C334.5,64.7,292.2,79.8,284.6,97.2z"/>
			<path class="st15" d="M396.5,164.1c-68-42-105.1-26.1-105.1-26.1c-10.4,24.8-35.5,31-35.5,31c6.8,4.5,0,21.2,0,21.2l28.7,3.8
				c37,6,33.3,69.6,33.3,69.6c3.8,0.8,33.3-31,33.3-31c10.6-31,31.8-29.5,31.8-29.5C417,169.8,396.5,164.1,396.5,164.1z"/>
			<path class="st16" d="M408.6,184.9c0,0,14.4-36.3-9.1-47.6l-24.2-24.9c0,0,9.1-47.6-40.8-47.6c21.8,3.6,15.9,40.8,15.9,40.8
				l-19.7,8.3c-3.8-3-36.3,0-36.3,0c2.3-15.1-9.8-16.6-9.8-16.6c7.6-17.4,49.9-32.5,49.9-32.5s-31-17.4-78.6,23.4
				c0,0-52.9,12.9-45.4,65l-24.9,2.3l0.8,10.6l-16.6-6c0,0-3.8-4.5-15.9,0l-49.1,21.2c0,0-0.6,3.4-0.7,10l26.1-10.2l32,16
				c0,0,7.3-3.6,12.4,0l28.4,16v6.5l47.3,24c0,0,24,15.3,18.2,49.5l-0.2,38.2c0,0-6.2,16.6-24.3,16.5c7.2,0.9,15.3-0.5,22-7.8
				l12.1-12.9v-9.8c0,0,14.4,6,24.2-1.5c0,0,19.7-15.1,21.9-36.3l9.8-6l12.1-3.8c0,0,4.5,12.9,17.4,7.6c0,0,34.8-23.4,36.3-46.1
				c0,0,5.3-12.9-5.3-22.7C394.3,208.3,407.9,196.2,408.6,184.9z M251.5,152.6c-23.3,5.8-29.2-10.2-29.2-10.2
				c-5.4-19,9.6-30.7,9.6-30.7c11.6-14.7,28.3-8.2,28.3-8.2c11.3,1.3,16,9.1,16,9.1C280.7,144,251.5,152.6,251.5,152.6z M382.9,203
				c0,0-21.2-1.5-31.8,29.5c0,0-29.5,31.8-33.3,31c0,0,3.8-63.5-33.3-69.6l-28.7-3.8c0,0,6.8-16.6,0-21.2c0,0,25.2-6.2,35.5-31
				c0,0,37-15.9,105.1,26.1C396.5,164.1,417,169.8,382.9,203z"/>
			<path class="st17" d="M109.7,245.7c-2-9.5-4.1-21.2-5.1-32.9C104.6,221.1,105.6,233.9,109.7,245.7z"/>
			<path class="st17" d="M104.7,203.8c-0.5-5.1-0.7-9.3-0.7-12.7l0,0c-0.5,6.9-0.2,14.3,0.5,21.8
				C104.4,207.4,104.7,203.8,104.7,203.8z"/>
			<path class="st17" d="M124.4,268.1c-7.1-5.5-11.7-13.7-14.7-22.3c2.7,12.4,5.2,21,5.2,21l97.3,68.1c13.2,9.5,23.6,12.8,31.7,12.9
				c-10.7-1.4-19.6-7.8-19.6-7.8L124.4,268.1z"/>
			<path class="st17" d="M248,322.7l0.2-31.4c4.9-28.1-15.3-40.6-15.3-40.6L193,231v-5.4l-23.9-13.1c-4.3-3-10.4,0-10.4,0l-27-13.1
				l-22,8.4c0,2.8,0.1,6.2,0.6,10.5c0,0-0.2,2.9-0.2,7.4c0.9,9.6,2.6,19.2,4.3,27c2.5,7.1,6.4,13.8,12.4,18.3l84.2,59
				c0,0,7.5,5.3,16.5,6.4C242.8,336.3,248,322.7,248,322.7z"/>
		</g>
	</g>
</g>
</svg>
