<?xml version="1.0" encoding="utf-8"?>
<!-- Generator: Adobe Illustrator 22.1.0, SVG Export Plug-In . SVG Version: 6.00 Build 0)  -->
<svg version="1.1" xmlns="http://www.w3.org/2000/svg" xmlns:xlink="http://www.w3.org/1999/xlink" x="0px" y="0px"
	 viewBox="0 0 500 500" style="enable-background:new 0 0 500 500;" xml:space="preserve">
<style type="text/css">
	.st0{display:none;}
	.st1{display:inline;fill:#F49636;}
	.st2{display:inline;}
	.st3{fill:#1D1D1B;}
	.st4{fill:none;stroke:#1D1D1B;stroke-miterlimit:10;}
	.st5{fill:none;stroke:#13110C;stroke-width:0.75;stroke-miterlimit:10;}
	.st6{fill:#13110C;}
	.st7{fill:none;stroke:#13110C;stroke-miterlimit:10;}
	.st8{fill:none;stroke:#000000;stroke-miterlimit:10;}
	.st9{fill:none;}
	.st10{fill:#FFFFFF;stroke:#13110C;stroke-miterlimit:10;}
	.st11{fill:#FFFFFF;stroke:#13110C;stroke-width:3;stroke-miterlimit:10;}
	.st12{fill:none;stroke:#13110C;stroke-width:2;stroke-miterlimit:10;}
	.st13{fill:#6A6A72;}
	.st14{fill:#58585E;}
	.st15{fill:#FFFFFF;}
	.st16{fill:none;stroke:#FFFFFF;stroke-width:0.25;stroke-miterlimit:10;}
</style>
<g id="Calque_2" class="st0">
	<rect y="-4" class="st1" width="504" height="504"/>
</g>
<g id="Calque_1">
	<g id="Calque_3" class="st0">
		<g class="st2">
			<rect x="200" y="225.1" class="st3" width="111" height="54.8"/>
			<circle class="st3" cx="255.8" cy="54.6" r="9.6"/>
			<line class="st4" x1="262.5" y1="65.9" x2="276.2" y2="91.5"/>
			<line class="st4" x1="245.9" y1="65.9" x2="232.2" y2="91.5"/>
			<rect x="244.2" y="202.1" class="st3" width="23" height="17.8"/>
			<g>
				<path d="M169,91.5v107.9h170V91.5H169z M213.4,145.5c-5.3,0-9.6-4.3-9.6-9.6s4.3-9.6,9.6-9.6s9.6,4.3,9.6,9.6
					S218.7,145.5,213.4,145.5z M286.3,177.7h-62.8v-11h62.8V177.7z M290.2,145.5c-5.3,0-9.6-4.3-9.6-9.6s4.3-9.6,9.6-9.6
					c5.3,0,9.6,4.3,9.6,9.6C299.8,141.2,295.5,145.5,290.2,145.5z"/>
			</g>
			<path class="st3" d="M317.1,230.5c0,0,36.3-9.1,35,86h-17.5c0,0,4.4-59.7-17.5-70.7"/>
			<path class="st3" d="M334.2,322.3c0,0-17.6,6.9-12.3,35h16.6c0,0-8.6-20.6,12.7-17.5c0,0,16.6-1.7,11.9,17.5h17.1
				c0,0,8.9-35-29.1-35h-12.6"/>
			<path class="st3" d="M193.7,230.5c0,0-36.3-9.1-35,86h17.5c0,0-4.4-59.7,17.5-70.7"/>
			<path class="st3" d="M176.6,322.3c0,0,17.6,6.9,12.3,35h-16.6c0,0,8.6-20.6-12.7-17.5c0,0-16.6-1.7-11.9,17.5h-17.1
				c0,0-8.9-35,29.1-35h12.6"/>
			<polygon class="st3" points="223,312.8 290.2,312.8 256.4,341.6 			"/>
			<rect x="224.7" y="286.1" class="st3" width="64.2" height="20.4"/>
			<polyline class="st3" points="290.2,321.6 290.2,420.6 273.3,420.6 273.3,334.4 			"/>
			<polyline class="st3" points="225.9,322.6 225.9,420.6 242.9,420.6 242.9,335.3 			"/>
			<rect x="190.9" y="425.9" class="st3" width="54.3" height="28.1"/>
			<rect x="270.9" y="425.9" class="st3" width="54.3" height="28.1"/>
		</g>
	</g>
	<g id="Calque_1_1_" class="st0">
		<g class="st2">
			<path d="M273.3,406c9.6-10.2,4.8-21,4.8-21c-8.6-18-26.5-10.8-26.5-10.8c-17.3,11-9.4,25.9-9.4,25.9
				c8.8,16.4,24.3,10.2,24.3,10.2c7.2,4.5,12.1,1.1,12.1,1.1C271.1,411.5,273.3,406,273.3,406z M258.8,384.3
				c0.3-0.2,0.5-0.4,0.9-0.4s0.7,0.1,0.9,0.4s0.4,0.5,0.4,0.9c0,0.3-0.1,0.6-0.4,0.9s-0.5,0.4-0.9,0.4c-0.3,0-0.6-0.1-0.9-0.4
				c-0.3-0.2-0.4-0.5-0.4-0.9S258.6,384.6,258.8,384.3z M262.6,399.7l-0.1,0.1c-0.9-0.1-1.8-0.1-2.7-0.1c-0.9,0-1.8,0-2.7,0.1
				l-0.1-0.1v-0.5l0.1-0.1c0.7,0,1.1-0.1,1.2-0.1s0.2-0.1,0.2-0.1c0.1-0.1,0.1-0.2,0.1-0.3c0-0.1,0.1-0.6,0.1-1.5
				c0-0.8,0.1-1.4,0.1-1.9V393c0-0.3,0-0.7,0-1.2s-0.1-0.8-0.1-1c0-0.1-0.1-0.2-0.2-0.3c-0.1-0.1-0.3-0.1-0.6-0.1H257l-0.1-0.1v-0.5
				l0.1-0.1c1.4-0.2,2.6-0.5,3.6-0.8l0.2,0.1c-0.1,1-0.1,2.2-0.1,3.7v2.5c0,0.2,0,0.7,0,1.6s0.1,1.4,0.1,1.6s0.1,0.3,0.2,0.3
				c0.1,0.1,0.1,0.1,0.2,0.1s0.5,0.1,1.2,0.1l0.1,0.1L262.6,399.7L262.6,399.7z"/>
		</g>
		<g class="st2">
			<path class="st5" d="M452.9,629.4l-4.2-1.2v-50.6c0,0-0.9-3.3,2.1-4l6.1-0.7l38.7,3.7l-1.2,49.9L452.9,629.4z"/>
			<polygon class="st6" points="454.3,613.4 458.7,628.5 522.1,640.7 522.1,617.7 454.3,612.3 			"/>
			<polygon class="st6" points="467.4,578.9 467.4,583.1 523.1,578.9 523.1,573.2 			"/>
			<polygon class="st6" points="460.6,591 460.6,596.1 523.1,596.1 523.1,586.7 			"/>
			<polygon class="st7" points="470.3,555.2 463.3,570.6 518.8,561.1 526.2,540 			"/>
			<path class="st4" d="M523.7,643.9l18.7,3.3l27.9-17.6v-60.3l-24.9-8.7l-20.6,1.4c0,0-2.6,0.9-1.9,7.3v3.9L523.7,643.9z"/>
			<g>
				<path class="st6" d="M501.5,607c0,0,0-0.3-0.6-0.3c0,0-0.6,0.2-0.6,0.8c0,0-0.1,0.9,0.6,1c0,0,0.7,0.1,0.8-0.6
					C501.7,608,501.9,607.3,501.5,607z"/>
				<path class="st6" d="M454.5,598.9v12l67.7,5.6v-17.1L454.5,598.9z M492.3,610.3c-1,1.4-2.3,0.8-2.3,0.8l-0.3-0.2
					c-1.1-0.7-1-3.8-1-3.8c0-1.8,2-2.2,2-2.2C493.8,605.4,492.3,610.3,492.3,610.3z M497.2,606.6h-0.8v1.5c-0.1,0.7,0.3,0.5,0.3,0.5
					v0.8c-1.3,0.2-1.1-0.8-1.1-0.8v-1.9v-0.2l-0.3-0.1v-0.9h0.7l0.1-1.1h0.7v1.1h0.5v1.1H497.2z M499.2,606.8
					c-0.7-0.1-0.6,0.2-0.6,0.2l-0.1,2.5h-0.9l0.2-3.7h0.6c0.3-0.2,0.8,0,0.8,0V606.8z M502.6,608.5c-0.3,1.5-1.8,1.2-1.8,1.2
					c-1.4-0.2-1.2-2.2-1.2-2.2c0-1.4,1.2-1.8,1.2-1.8c1.2,0,1.3,0.5,1.3,0.5C502.9,606.8,502.6,608.5,502.6,608.5z M504.9,606.9
					h-0.8v1.5c-0.1,0.7,0.3,0.5,0.3,0.5v0.8c-1.3,0.2-1.1-0.8-1.1-0.8V607v-0.2l-0.3-0.1v-0.9h0.7l0.1-1.1h0.7v1.1h0.5v1.1H504.9z
					 M508.1,608.3h-1.6h-0.2v-0.7h1c0-0.5-0.5-0.4-0.5-0.4s-1.2-0.2-1.1,0.7c0,0.9,0.9,1,0.9,1l1.2-0.2c0,0,0.2,0.2,0.2,0.6
					c0,0.6-1.6,0.6-1.6,0.6c-1.4-0.2-1.4-1.7-1.4-1.7c-0.2-1.4,0.5-1.8,0.5-1.8c0.6-0.7,1.9-0.2,1.9-0.2
					C508.3,606.5,508.1,608.3,508.1,608.3z M509.9,610.1c0,0-1.4-0.4-1.4-2.1c0,0,0-1.7,1.2-1.8c0,0,1.4-0.5,1.7,0.8l-0.7,0.8
					c0,0-0.4-0.7-0.9-0.1c0,0-0.3,0.7,0,1.1c0,0,0.3,0.5,1.1,0.2l0.7,1C511.6,609.9,510.6,610.6,509.9,610.1z"/>
			</g>
			<line class="st7" x1="526" y1="540" x2="545.3" y2="560.5"/>
			<line class="st7" x1="485.6" y1="566.8" x2="495.6" y2="576.6"/>
		</g>
		<g class="st2">
			<path class="st4" d="M293.3,459.8c0,0,8.7,14.8,34.1,2.7c0,0,9.8-3,12.7-17.3c0,0,11.9,38.9,8.6,49.2c0,0-8.2,14.4-11.9,15.3
				s-16.8,0.8-24.4-6.1C312.4,503.7,302.6,484.9,293.3,459.8z"/>
			<g>
				<path d="M295.2,467.7c-28,3-31.3-13.9-31.3-13.9c0.5,26.7,3.5,47.8,3.5,47.8c4.9,9.1,17.2,13.5,21,13.9s16.3-10.5,16.3-10.5
					c6.5-8.6,8.2-49.3,8.2-49.3C305.5,468.1,295.2,467.7,295.2,467.7z M274.1,483.8l5.5-3.6l4.1,4
					C283.6,484.2,279.4,482.2,274.1,483.8z M287.8,505.1c-7.8-0.5-10-6.1-10-6.1c2.3,3.1,10.6,3.3,10.6,3.3c7.2-0.5,8.9-1.7,9.3-2.3
					c0-0.1,0.1-0.2,0.1-0.3c0,0,0,0.1-0.1,0.3C296.1,505.1,287.8,505.1,287.8,505.1z M292.7,484.3l5.5-3.6l4.1,4
					C302.2,484.7,298,482.7,292.7,484.3z"/>
				<path d="M320.6,500.3c0,0.1-0.1,0.2-0.1,0.3C320.6,500.4,320.6,500.3,320.6,500.3z"/>
			</g>
			<path d="M321.7,499.8c0,0,0.7-6,8.2-8.4c0,0,8.3-2.2,11,2.8c0,0-0.2-1.9-9.7-0.2C331.2,493.9,323.1,496.2,321.7,499.8z"/>
			<path d="M311.4,481.6l6.4,1.5l2.5-5.1C320.3,478,317,481.3,311.4,481.6z"/>
			<path d="M328.8,474.9l6.4,1.5l2.5-5.1C337.7,471.3,334.3,474.6,328.8,474.9z"/>
		</g>
		<g class="st2">
			<path class="st8" d="M336.7,601.1l23.8-0.1v4h-3.2l0.3,24.7l22.1,33c0,0,4,5,0.5,6h-60.7c0,0-2.8-1.8-0.8-4.7
				c1.7-2.4,22-34.7,22-34.7v-24.5l-3.9-0.2L336.7,601.1z"/>
			<polyline points="322.3,664.3 336.5,642.3 362.5,642.3 377.7,665.2 322.3,665.2 			"/>
		</g>
		<g class="st2">
			<path d="M376.3,376.5c81.3-86.4,40.5-177.2,40.5-177.2c-72.5-152.3-224-91.2-224-91.2C47,201,113.2,326.5,113.2,326.5
				c74.4,138.2,204.9,85.9,204.9,85.9c61.1,38.3,102.2,9.6,102.2,9.6C358.3,423.4,376.3,376.5,376.3,376.5z M267.2,340.8
				c-2.6,2.6-5.7,3.9-9.4,3.9c-3.6,0-6.8-1.3-9.4-3.9c-2.6-2.6-3.9-5.7-3.9-9.3c0-3.8,1.3-6.9,4-9.5s5.8-3.8,9.3-3.8
				c3.7,0,6.8,1.3,9.4,3.9s3.9,5.7,3.9,9.4C271.1,335.1,269.8,338.2,267.2,340.8z M300.1,232.8c-1.5,4.1-3.7,8-6.7,11.9
				c-2.9,3.9-8.5,9.5-16.8,16.9c-5.3,4.7-9.3,8.5-12,11.4c-2.8,3-4.9,5.8-6.3,8.6c-1.4,2.8-2.1,5.3-2.1,7.6c0,3.8,1.5,7.4,4.4,10.7
				l-0.2,1.6l-2.9,2.2h-1.8c-6.1-4.7-9.1-10.2-9.1-16.7c0-4.4,1.1-8.5,3.2-12.4c2.1-3.9,7-10,14.4-18.4c5.9-6.6,10.3-12.3,13.1-17.1
				c2.8-4.8,4.2-9.6,4.2-14.3c0-7.3-2.7-13.4-8.1-18.3c-5.4-4.8-12-7.3-19.8-7.3c-4.4,0-9.1,1-14.2,3c-2.1,2-3.9,4.8-5.6,8.3
				l-4.2,8.4l-1.3,0.9l-4.9-0.6l-0.7-1.6l8.5-25.8c8.7-5.6,18.1-8.4,28.3-8.4c7.8,0,15,1.4,21.6,4.3c6.6,2.8,11.7,7.1,15.4,12.7
				c3.7,5.6,5.6,12,5.6,19C302.3,224.3,301.6,228.7,300.1,232.8z"/>
		</g>
		<g class="st2">
			<path d="M335,156h-46.7h-86.6v0.9h-50.4V156H126v177.7h259.3V156H335z M259.4,316.3c-33.4,0-60.4-27.1-60.4-60.4
				s27.1-60.4,60.4-60.4c33.4,0,60.4,27.1,60.4,60.4S292.8,316.3,259.4,316.3z"/>
			<path d="M259.4,202.6c-29.4,0-53.2,23.8-53.2,53.2S230,309,259.4,309s53.2-23.8,53.2-53.2S288.8,202.6,259.4,202.6z M259.4,296.1
				c-19.8,0-35.9-16.1-35.9-35.9s16.1-35.9,35.9-35.9s35.9,16.1,35.9,35.9S279.3,296.1,259.4,296.1z"/>
			<g>
				<path d="M267.9,116v28.9h85.5V116H267.9z M344.6,140.3h-67.8v-18.2h67.8L344.6,140.3L344.6,140.3z"/>
			</g>
			<rect x="288.3" y="147.7" width="46.7" height="8.2"/>
			<rect x="86.9" y="179" width="29.6" height="131.7"/>
			<rect x="151.3" y="142.2" width="50.4" height="13.8"/>
			<rect x="151.3" y="156" width="50.4" height="0.9"/>
		</g>
		<g class="st2">
			<g>
				<circle cx="252.9" cy="214.9" r="47.1"/>
				<path d="M196.6,331.6c0,0-11.3-68,30.2-69.6c0,0,8.7,0.8,9.7,5.3c0,0,9,20.6,28.6,8c0,0,4.5-6,4.5-8c0,0,0.5-4.6,8-5.3
					c0,0,42.2,0,31,69.6H196.6z"/>
			</g>
			<g>
				<circle cx="342.3" cy="228.2" r="36.5"/>
				<path d="M298.7,318.5c0,0-8.8-52.7,23.4-53.9c0,0,6.7,0.6,7.5,4.1c0,0,7,15.9,22.2,6.2c0,0,3.5-4.7,3.5-6.2c0,0,0.4-3.6,6.2-4.1
					c0,0,32.6,0,24,53.9H298.7z"/>
			</g>
			<g>
				<circle cx="161.1" cy="228.2" r="36.5"/>
				<path d="M117.6,318.5c0,0-8.8-52.7,23.4-53.9c0,0,6.7,0.6,7.5,4.1c0,0,7,15.9,22.2,6.2c0,0,3.5-4.7,3.5-6.2c0,0,0.4-3.6,6.2-4.1
					c0,0,32.6,0,24,53.9H117.6z"/>
			</g>
		</g>
		<g class="st2">
			<g>
				<circle cx="229.1" cy="167.4" r="36.5"/>
				<path d="M185.5,257.8c0,0-8.8-52.7,23.4-53.9c0,0,6.7,0.6,7.5,4.1c0,0,7,15.9,22.2,6.2c0,0,3.5-4.7,3.5-6.2c0,0,0.4-3.6,6.2-4.1
					c0,0,32.7,0,24,53.9H185.5z"/>
			</g>
			<g>
				<line class="st8" x1="289.6" y1="258.7" x2="306.3" y2="258.7"/>
				<g>
					<path class="st8" d="M286.6,223.6c0,0-2.3,17.1,11.6,16.7c0,0,11.6,0.4,11.6-16.7"/>
					<line class="st8" x1="298" y1="242.2" x2="298" y2="258.1"/>
					<path d="M305.6,229.2h-15.2c0,0,1.7,7.3,5.6,7.3C295.9,236.5,303.5,239.4,305.6,229.2z"/>
				</g>
			</g>
			<g>
				<line class="st8" x1="319" y1="258.9" x2="335.7" y2="258.9"/>
				<g>
					<path class="st8" d="M316,223.7c0,0-2.3,17.1,11.6,16.7c0,0,11.6,0.4,11.6-16.7"/>
					<line class="st8" x1="327.4" y1="242.4" x2="327.4" y2="258.3"/>
					<path d="M335,229.4h-15.2c0,0,1.7,7.3,5.6,7.3C325.3,236.7,332.9,239.5,335,229.4z"/>
				</g>
			</g>
			<g>
				<line class="st8" x1="349.3" y1="259.1" x2="365.9" y2="259.1"/>
				<g>
					<path class="st8" d="M346.2,223.9c0,0-2.3,17.1,11.6,16.7c0,0,11.6,0.4,11.6-16.7"/>
					<line class="st8" x1="357.6" y1="242.6" x2="357.6" y2="258.5"/>
					<path d="M365.2,229.6H350c0,0,1.7,7.3,5.6,7.3C355.6,236.9,363.1,239.7,365.2,229.6z"/>
				</g>
			</g>
			<g>
				<path d="M146.7,308.9c0.2,0.7,0.3,1.4,0.5,2.2c12,53.4,36,102,36,102H335c22.8-40.5,31.3-73.8,39.2-105.1
					C344.4,311,248,318.8,146.7,308.9z"/>
				<path d="M376.4,302.2c5.5-24.2,7.2-41,7.2-41H140.5c0,13.7,1.7,28.1,4.4,42.4C188.8,307.9,288.8,314.9,376.4,302.2z"/>
			</g>
		</g>
		<g class="st2">
			<path class="st9" d="M284.6,97.2c0,0,12.1,1.5,9.8,16.6c0,0,32.5-3,36.3,0l19.7-8.3c0,0,5.9-37.3-15.9-40.8
				C334.5,64.7,292.2,79.8,284.6,97.2z"/>
			<path class="st9" d="M396.5,164.1c-68-42-105.1-26.1-105.1-26.1c-10.4,24.8-35.5,31-35.5,31c6.8,4.5,0,21.2,0,21.2l28.7,3.8
				c37,6,33.3,69.6,33.3,69.6c3.8,0.8,33.3-31,33.3-31c10.6-31,31.8-29.5,31.8-29.5C417,169.8,396.5,164.1,396.5,164.1z"/>
			<path class="st6" d="M408.6,184.9c0,0,14.4-36.3-9.1-47.6l-24.2-24.9c0,0,9.1-47.6-40.8-47.6c21.8,3.6,15.9,40.8,15.9,40.8
				l-19.7,8.3c-3.8-3-36.3,0-36.3,0c2.3-15.1-9.8-16.6-9.8-16.6c7.6-17.4,49.9-32.5,49.9-32.5s-31-17.4-78.6,23.4
				c0,0-52.9,12.9-45.4,65l-24.9,2.3l0.8,10.6l-16.6-6c0,0-3.8-4.5-15.9,0l-49.1,21.2c0,0-0.6,3.4-0.7,10l26.1-10.2l32,16
				c0,0,7.3-3.6,12.4,0l28.4,16v6.5l47.3,24c0,0,24,15.3,18.2,49.5l-0.2,38.2c0,0-6.2,16.6-24.3,16.5c7.2,0.9,15.3-0.5,22-7.8
				l12.1-12.9v-9.8c0,0,14.4,6,24.2-1.5c0,0,19.7-15.1,21.9-36.3l9.8-6l12.1-3.8c0,0,4.5,12.9,17.4,7.6c0,0,34.8-23.4,36.3-46.1
				c0,0,5.3-12.9-5.3-22.7C394.3,208.3,407.9,196.2,408.6,184.9z M251.5,152.6c-23.3,5.8-29.2-10.2-29.2-10.2
				c-5.4-19,9.6-30.7,9.6-30.7c11.6-14.7,28.3-8.2,28.3-8.2c11.3,1.3,16,9.1,16,9.1C280.7,144,251.5,152.6,251.5,152.6z M382.9,203
				c0,0-21.2-1.5-31.8,29.5c0,0-29.5,31.8-33.3,31c0,0,3.8-63.5-33.3-69.6l-28.7-3.8c0,0,6.8-16.6,0-21.2c0,0,25.2-6.2,35.5-31
				c0,0,37-15.9,105.1,26.1C396.5,164.1,417,169.8,382.9,203z"/>
			<path class="st6" d="M109.7,245.7c-2-9.5-4.1-21.2-5.1-32.9C104.6,221.1,105.6,233.9,109.7,245.7z"/>
			<path class="st6" d="M104.7,203.8c-0.5-5.1-0.7-9.3-0.7-12.7l0,0c-0.5,6.9-0.2,14.3,0.5,21.8
				C104.4,207.4,104.7,203.8,104.7,203.8z"/>
			<path class="st6" d="M124.4,268.1c-7.1-5.5-11.7-13.7-14.7-22.3c2.7,12.4,5.2,21,5.2,21l97.3,68.1c13.2,9.5,23.6,12.8,31.7,12.9
				c-10.7-1.4-19.6-7.8-19.6-7.8L124.4,268.1z"/>
			<path class="st6" d="M248,322.7l0.2-31.4c4.9-28.1-15.3-40.6-15.3-40.6L193,231v-5.4l-23.9-13.1c-4.3-3-10.4,0-10.4,0l-27-13.1
				l-22,8.4c0,2.8,0.1,6.2,0.6,10.5c0,0-0.2,2.9-0.2,7.4c0.9,9.6,2.6,19.2,4.3,27c2.5,7.1,6.4,13.8,12.4,18.3l84.2,59
				c0,0,7.5,5.3,16.5,6.4C242.8,336.3,248,322.7,248,322.7z"/>
		</g>
		<g class="st2">
			<path class="st6" d="M428,194.9c0,0-2.2-3.3-16-4.4L152.5,176c0,0-7.4-2.2-7.7,3.7c0,0-9.7-2.3-12.5,3.2c0,0-23.5,38.2-21.3,74.4
				c0,0-2.5,10,9.1,11.3l10.8,1.4l0.3,5.8h2.5h1.7L135,282l6.4,1.4c0,0,14.9-45.7,21.3-47.9c0,0,6.6-3,10.8-3l149.1,11.3l-0.8,3.3
				l11.9,2.2c0,0-7.7,7.7-7.5,12.7c0,0-7.4,27.3-8.9,32.1l16.6,1.2l4.7,0.7l0.6,8.3h18l5-3l-0.6-8.9l39.6,1.7c0,0,7.7,0.8,11.6-10.8
				c3.9-11.6,17.2-16.9,17.2-16.9V209C430,209,431,196.7,428,194.9z"/>
			<polygon class="st10" points="167.1,222.8 167.1,231.2 362.5,245.5 364.1,237.5 			"/>
			<polygon class="st10" points="167.1,212.6 167.1,221 362.5,235.2 364.1,227.2 			"/>
			<path class="st6" d="M378.8,177.1c0,0-5-1.7-5,9.4h9.4C383.2,186.6,385.7,176,378.8,177.1z"/>
			<path class="st7" d="M169.7,233c0,0-12-7.8-28.3,50.3c0,0-27.9,26.3-54.5,33.8l186.8,23.8c0,0,33.2-19.4,33.2-24.3
				c0,0,10.5-14.4,11.9-27.2c1.4-12.9,8.9-43.9,17-45.8L169.7,233z"/>
			<path class="st11" d="M327.3,210.1l24.9,1.4l-3.6,28.6c0,0-2.5,1.6-2.5,8.8l-10.5,3.6l-16-2.8
				C319.6,249.6,317.4,217.8,327.3,210.1z"/>
		</g>
		<g class="st2">
			<path class="st12" d="M147.1,151.9c0,0,70.5,11.5,72.8,18.3c0,0,5,5,4.1,11l0.1,158.5l112.1,13.7l68.7-16.2V138.6l-103.6-30.2
				l-149,15.6L147.1,151.9z"/>
			<polygon class="st6" points="246,296.6 172.3,302.1 339,310.4 372,300.8 			"/>
			<path class="st7" d="M152.5,241.7"/>
			<g>
				<polygon class="st7" points="246.2,274.3 261.8,303.5 290.8,303.5 323.3,299.5 328.9,274.3 304.6,225.8 258.3,228.1 
					241.5,256.8 				"/>
				<g>
					<polyline class="st7" points="246.2,274.3 266.6,252.3 273.4,227.3 					"/>
					<polyline class="st7" points="266.6,252.3 294.3,274.3 290.8,303.5 					"/>
					<line class="st7" x1="294.3" y1="274.3" x2="319.5" y2="255.6"/>
				</g>
			</g>
			<g>
				<path class="st6" d="M411.7,350.7l-2.3-205.2c0.5-21.5-9.1-20.2-9.1-20.2l-42.2-30.7c-16.9-13.7-19.2-7.3-19.2-7.3L151,111.6
					c-30.7,0.5-22.4,19.9-22.4,19.9l-1,231.1l7.4,0.5l-0.5,24.3l207,18.8l65-32.1l-0.5-23.4L411.7,350.7L411.7,350.7z M290.7,337
					l-120.9-2.3c-19.7,0-15.2-15.6-15.2-15.6l0.1-161.2c-1.4-16,12.4-12.8,12.4-12.8l120.5-13.3c17.4-2.3,15.6,11,15.6,11l0.1,180.5
					C303.7,340.2,290.7,337,290.7,337z M349.4,347.8L348,149c0,0-4.1-18.8,9.2-13.7l37.6,20.2c0,0,6.4-0.5,5.5,13.3l0.1,162.6
					L349.4,347.8z"/>
			</g>
			<polygon class="st6" points="207.6,307.2 207.6,318.2 217.6,318.2 217.6,326.9 226.8,337.2 313.8,337.2 343.1,312.2 			"/>
			<polygon class="st6" points="260.2,146.9 260.2,165.6 284.5,163.3 284.5,141.8 260.2,144.1 			"/>
			<polygon class="st6" points="262.5,171.6 262.5,179.4 272.4,177.5 284.5,181.2 284.5,171.6 272.4,167.9 			"/>
			<polygon class="st6" points="267.8,179 273.2,188.4 278.6,179 			"/>
			<rect x="266.2" y="160.1" class="st6" width="11.7" height="11.7"/>
			<polygon class="st6" points="252,133.1 266.4,143.2 275.4,143.2 260.2,132 			"/>
		</g>
	</g>
	<g id="Calque_2_1_">
		<g>
			<g>
				<path class="st13" d="M373.3,342.6L167.3,90c0,0-24.8-11-30.7-9.5c-5.8,1.5-19,13.9-27,22.6l167.2,276.8l4.4-3.7l17.5,20.4
					c0,0,38.7-9.5,43.8-20.4c0,0,23.4-5.8,30.7-12.4C373.3,363.8,390.8,358,373.3,342.6z M307.5,348.5L132.3,100.9l-4.9-9.5v-5.2
					l188.2,257.1L307.5,348.5z M346.5,330.5L150.8,86.2l201.1,244.2h-5.4V330.5z"/>
			</g>
			<path class="st14" d="M139.9,103.4L115.7,129l29.7,48.2l7.3,6.8l26-27.5L139.9,103.4z M127.4,141.1L143,125l7.8,8.8l-18,16.6
				L127.4,141.1z M144.3,160.5l-5.2-10.1c6.3-6.2,8.2-6.7,8.2-6.7l7.9,3.3C159.6,160.1,144.3,160.5,144.3,160.5z"/>
			<polygon class="st15" points="143,125 127.4,141.1 132.8,150.4 150.8,133.8 			"/>
			<path class="st15" d="M155.2,146.9l-7.9-3.3c0,0-1.9,0.5-8.2,6.7l5.2,10.1C144.3,160.5,159.6,160.1,155.2,146.9z"/>
			<path class="st16" d="M262.4,355.9c0,0,35.1-30.9,36.2-35.7c0,0,18.6-7.9,22.4-21.6"/>
			<path class="st16" d="M256.4,346.1c0,0,34.2-30.3,35.3-35.2c0,0,19-5.8,22.8-19.5"/>
			<path class="st16" d="M265,345.8c0,0,28.9-25.8,30-30.7c0,0,19-4.1,22.7-17.8"/>
			<path class="st16" d="M251.7,338.2c0,0,33.2-30.2,34.3-35c0,0,19.1-6,22.8-19.7"/>
			<path class="st16" d="M265,345.8c0,0,28.9-25.8,30-30.7c0,0,19.4-5.3,23.1-19"/>
			<path class="st16" d="M254,342.1c0,0,34.5-30.3,35.6-35.2c0,0,18-5.6,21.8-19.3"/>
			<path class="st16" d="M259.6,351.3c-0.5-0.6,34.1-31.5,35.4-36.2c0,0,19.6-6.1,23.4-19.8"/>
			<path class="st16" d="M249.4,332.7c0,0,31.9-28.9,33-33.7c0,0,19.2-4.9,23-18.6"/>
			<path class="st16" d="M242.6,323.2c0,0,31.7-28.7,32.8-33.6c0,0,20.3-4.2,24-17.9"/>
			<path class="st16" d="M237,313.8c0,0,31.6-27,32.8-31.9c0,0,19.3-3.2,23.1-16.9"/>
			<path class="st16" d="M240.4,318.2c0,0,31.9-27.6,33-32.5c0,0,18.4-3.6,22.1-17.3"/>
			<path class="st16" d="M246,327.3c0,0,31.6-28.6,32.7-33.4c0,0,19.6-4.3,23.3-18"/>
			<path class="st16" d="M234.6,309.8c0,0,30.9-27.9,32.1-32.8c0,0,18.6-2.7,22.3-16.4"/>
			<path class="st16" d="M228.6,299.6c0,0,30-27,31.1-31.8c0,0,19.3-1.8,23-15.6"/>
			<path class="st16" d="M223.9,290.7c0,0,28.9-25.8,30-30.7c0,0,19.2-1.8,22.9-15.6"/>
			<path class="st16" d="M226.7,295.3c0,0,29.8-26.7,30.9-31.6c0,0,18.9-1.8,22.6-15.6"/>
			<path class="st16" d="M231.3,304.4c0,0,30.6-27.6,31.7-32.4c0,0,18.7-1.8,22.5-15.6"/>
			<path class="st16" d="M220.3,285.7c0,0,30.8-26.6,31.8-30.8c0,0,18.4-1.3,21.9-13.3"/>
			<path class="st16" d="M214.6,276.8c0,0,30.1-25.9,31.1-30.2c0,0,18.7-0.4,22.2-12.4"/>
			<path class="st16" d="M220.8,277.4c0,0,26.9-22.8,27.9-27c0,0,18.8-1,22.3-13"/>
			<path class="st16" d="M210,269.2c0,0,29.3-25.1,30.3-29.4c0,0,17.9-1.6,21.4-13.7"/>
			<path class="st16" d="M220.8,277.4c0,0,26.9-22.8,27.9-27c0,0,18.5,0,22-12"/>
			<path class="st16" d="M212.4,273.5c0,0,30.3-26.1,31.3-30.3c0,0,17.6-1.6,21.1-13.7"/>
			<path class="st16" d="M217.1,281c0,0,30.6-26.4,31.6-30.6c0,0,18.8-1,22.3-13"/>
			<path class="st16" d="M207.2,265.1c0,0,28.8-24.7,29.9-28.9c0,0,17.9-1.6,21.3-13.7"/>
			<path class="st16" d="M201.9,255.8c0,0,27.7-23.6,28.8-27.9c0,0,18.3-1.6,21.8-13.7"/>
			<path class="st16" d="M197.3,248.1c0,0,26.9-22.8,27.9-27c0,0,17.3-1.6,20.8-13.7"/>
			<path class="st16" d="M200.7,251.5c-2.8,2.4,26.6-22.5,27.9-27c0,0,17.2-1.6,20.7-13.7"/>
			<path class="st16" d="M204.7,259.7c0,0,27.9-23.8,28.9-28c0,0,18.5-1.3,22-13.4"/>
			<path class="st16" d="M194.5,243.9c0,0,26.9-22.8,27.9-27c0,0,17,0,20.5-12.1"/>
			<path class="st16" d="M189.4,235.1c0,0,25.2-23.7,26.1-27.9c0,0,18.4,0.7,21.6-11.4"/>
			<path class="st16" d="M185.4,227.4c0,0,24.4-22.8,25.3-27c0,0,16.9-0.3,20-12.3"/>
			<path class="st16" d="M187.4,231.8c0,0,25.4-23.9,26.3-28.2c0,0,16.8,0.4,20-11.7"/>
			<path class="st16" d="M192.6,239.8c0,0,25.4-23.9,26.4-28.2c0,0,18.2,0.3,21.4-11.8"/>
			<path class="st16" d="M181.8,225.1c0,0,25.2-24.8,26.1-29.5c0,0,16.3,2.4,19.6-10.7"/>
			<path class="st16" d="M176.5,215.4c0,0,24.5-24.1,25.5-28.7c0,0,15.1,1.7,18.4-11.4"/>
			<path class="st16" d="M178.6,220.2c0,0,25.2-24.8,26.1-29.5c0,0,17,2.6,20.3-10.6"/>
			<path class="st16" d="M172,207.4c0,0,24-23.5,25-28.1c0,0,14.3,0.7,17.5-12.4"/>
			<path class="st16" d="M178.6,220.2c0,0,25.2-24.8,26.1-29.5c0,0,17,2.6,20.3-10.6"/>
			<path class="st16" d="M175,211.2c0,0,24.2-23.7,25.1-28.3c0,0,14.4,1,17.7-12.2"/>
			<path class="st16" d="M178.6,220.2c0,0,25.2-24.8,26.1-29.5c0,0,17,2.6,20.3-10.6"/>
			<path class="st16" d="M169.7,202.5c0,0,23.2-22.6,24.1-27.2c0,0,14.5,0,17.7-13.2"/>
			<path class="st16" d="M164,193.1c0,0,22.8-22.2,23.8-26.8c0,0,13-0.5,16.2-13.6"/>
			<path class="st16" d="M161.9,189.6c0,0,23.1-22.5,24.1-27.1c0,0,11.5-1.8,14.7-14.9"/>
			<path class="st16" d="M166.6,197.4c0,0,23-22.4,24-27.1c0,0,13.4-0.5,16.6-13.6"/>
			<path class="st16" d="M118.9,119.5c0,0,18-15.8,18.7-18.8c0,0,8.2-1.1,10.5-9.5"/>
			<path class="st16" d="M116.9,116.5c0,0,18-15.8,18.7-18.8c0,0,8.2-1.1,10.5-9.5"/>
			<path class="st16" d="M112.7,110.8c0,0,18-15.8,18.7-18.8c0,0,8.2-1.1,10.5-9.5"/>
			<path class="st16" d="M114.7,113.4c0,0,18-15.8,18.7-18.8c0,0,8.2-1.1,10.5-9.5"/>
		</g>
	</g>
</g>
</svg>
